<mxfile host="Electron" agent="Mozilla/5.0 (Windows NT 10.0; Win64; x64) AppleWebKit/537.36 (KHTML, like Gecko) draw.io/24.7.5 Chrome/126.0.6478.183 Electron/31.3.0 Safari/537.36" version="24.7.5">
  <diagram name="Page-1" id="VIGg4F3f0K3M2XpwF-_F">
    <mxGraphModel dx="989" dy="577" grid="1" gridSize="10" guides="1" tooltips="1" connect="1" arrows="1" fold="1" page="1" pageScale="1" pageWidth="1654" pageHeight="2336" math="0" shadow="0">
      <root>
        <mxCell id="0" />
        <mxCell id="1" parent="0" />
        <mxCell id="lIeRqMMSOQEThmGoemfZ-2" style="edgeStyle=orthogonalEdgeStyle;rounded=0;orthogonalLoop=1;jettySize=auto;html=1;startArrow=classic;startFill=1;endArrow=none;endFill=0;fontFamily=Artifakt Element;fontStyle=0" edge="1" parent="1" source="lIeRqMMSOQEThmGoemfZ-1">
          <mxGeometry relative="1" as="geometry">
            <mxPoint x="660" y="270" as="targetPoint" />
          </mxGeometry>
        </mxCell>
        <mxCell id="lIeRqMMSOQEThmGoemfZ-8" style="edgeStyle=orthogonalEdgeStyle;rounded=0;orthogonalLoop=1;jettySize=auto;html=1;exitX=0.5;exitY=1;exitDx=0;exitDy=0;fontFamily=Artifakt Element;fontStyle=0" edge="1" parent="1" source="lIeRqMMSOQEThmGoemfZ-1" target="lIeRqMMSOQEThmGoemfZ-7">
          <mxGeometry relative="1" as="geometry">
            <Array as="points">
              <mxPoint x="660" y="370" />
              <mxPoint x="740" y="370" />
            </Array>
          </mxGeometry>
        </mxCell>
        <mxCell id="lIeRqMMSOQEThmGoemfZ-10" value="Misure AC" style="edgeLabel;html=1;align=center;verticalAlign=middle;resizable=0;points=[];fontFamily=Artifakt Element;fontStyle=0" vertex="1" connectable="0" parent="lIeRqMMSOQEThmGoemfZ-8">
          <mxGeometry x="-0.1982" y="1" relative="1" as="geometry">
            <mxPoint x="56" y="-9" as="offset" />
          </mxGeometry>
        </mxCell>
        <mxCell id="lIeRqMMSOQEThmGoemfZ-1" value="Attenuamento&lt;div&gt;&lt;font style=&quot;font-size: 10px;&quot;&gt;(partitore resistivo)&lt;/font&gt;&lt;/div&gt;" style="rounded=0;whiteSpace=wrap;html=1;fillColor=#d5e8d4;strokeColor=#82b366;fontFamily=Artifakt Element;fontStyle=0" vertex="1" parent="1">
          <mxGeometry x="600" y="300" width="120" height="40" as="geometry" />
        </mxCell>
        <mxCell id="lIeRqMMSOQEThmGoemfZ-17" style="edgeStyle=orthogonalEdgeStyle;rounded=0;orthogonalLoop=1;jettySize=auto;html=1;entryX=0.5;entryY=0;entryDx=0;entryDy=0;fontFamily=Artifakt Element;fontStyle=0" edge="1" parent="1" source="lIeRqMMSOQEThmGoemfZ-3" target="lIeRqMMSOQEThmGoemfZ-14">
          <mxGeometry relative="1" as="geometry">
            <Array as="points">
              <mxPoint x="580" y="530" />
              <mxPoint x="660" y="530" />
            </Array>
          </mxGeometry>
        </mxCell>
        <mxCell id="lIeRqMMSOQEThmGoemfZ-3" value="" style="verticalLabelPosition=bottom;shadow=0;dashed=0;align=center;html=1;verticalAlign=top;shape=mxgraph.electrical.logic_gates.lowpass_filter;fontFamily=Artifakt Element;fontStyle=0" vertex="1" parent="1">
          <mxGeometry x="550" y="400" width="60" height="40" as="geometry" />
        </mxCell>
        <mxCell id="lIeRqMMSOQEThmGoemfZ-4" style="edgeStyle=orthogonalEdgeStyle;rounded=0;orthogonalLoop=1;jettySize=auto;html=1;entryX=0.492;entryY=-0.006;entryDx=0;entryDy=0;entryPerimeter=0;fontFamily=Artifakt Element;fontStyle=0" edge="1" parent="1" source="lIeRqMMSOQEThmGoemfZ-1" target="lIeRqMMSOQEThmGoemfZ-3">
          <mxGeometry relative="1" as="geometry">
            <Array as="points">
              <mxPoint x="660" y="370" />
              <mxPoint x="580" y="370" />
            </Array>
          </mxGeometry>
        </mxCell>
        <mxCell id="lIeRqMMSOQEThmGoemfZ-5" value="Misure DC" style="edgeLabel;html=1;align=center;verticalAlign=middle;resizable=0;points=[];fontFamily=Artifakt Element;fontStyle=0" vertex="1" connectable="0" parent="lIeRqMMSOQEThmGoemfZ-4">
          <mxGeometry x="0.0502" y="1" relative="1" as="geometry">
            <mxPoint x="-36" y="-11" as="offset" />
          </mxGeometry>
        </mxCell>
        <mxCell id="lIeRqMMSOQEThmGoemfZ-13" style="edgeStyle=orthogonalEdgeStyle;rounded=0;orthogonalLoop=1;jettySize=auto;html=1;fontFamily=Artifakt Element;fontStyle=0" edge="1" parent="1" source="lIeRqMMSOQEThmGoemfZ-7" target="lIeRqMMSOQEThmGoemfZ-12">
          <mxGeometry relative="1" as="geometry" />
        </mxCell>
        <mxCell id="lIeRqMMSOQEThmGoemfZ-7" value="" style="verticalLabelPosition=bottom;shadow=0;dashed=0;align=center;html=1;verticalAlign=top;shape=mxgraph.electrical.logic_gates.bandpass_filter;fontFamily=Artifakt Element;fontStyle=0" vertex="1" parent="1">
          <mxGeometry x="710" y="400" width="60" height="40" as="geometry" />
        </mxCell>
        <mxCell id="lIeRqMMSOQEThmGoemfZ-18" style="edgeStyle=orthogonalEdgeStyle;rounded=0;orthogonalLoop=1;jettySize=auto;html=1;entryX=0.5;entryY=0;entryDx=0;entryDy=0;fontFamily=Artifakt Element;fontStyle=0" edge="1" parent="1" source="lIeRqMMSOQEThmGoemfZ-12" target="lIeRqMMSOQEThmGoemfZ-14">
          <mxGeometry relative="1" as="geometry">
            <Array as="points">
              <mxPoint x="740" y="530" />
              <mxPoint x="660" y="530" />
            </Array>
          </mxGeometry>
        </mxCell>
        <mxCell id="lIeRqMMSOQEThmGoemfZ-12" value="Convertitore RMS" style="rounded=0;whiteSpace=wrap;html=1;fillColor=#fff2cc;strokeColor=#d6b656;fontFamily=Artifakt Element;fontStyle=0" vertex="1" parent="1">
          <mxGeometry x="680" y="470" width="120" height="40" as="geometry" />
        </mxCell>
        <mxCell id="lIeRqMMSOQEThmGoemfZ-19" style="edgeStyle=orthogonalEdgeStyle;rounded=0;orthogonalLoop=1;jettySize=auto;html=1;fontFamily=Artifakt Element;fontStyle=0" edge="1" parent="1" source="lIeRqMMSOQEThmGoemfZ-14">
          <mxGeometry relative="1" as="geometry">
            <mxPoint x="660" y="630" as="targetPoint" />
          </mxGeometry>
        </mxCell>
        <mxCell id="lIeRqMMSOQEThmGoemfZ-14" value="ADC" style="rounded=0;whiteSpace=wrap;html=1;fillColor=#dae8fc;strokeColor=#6c8ebf;fontFamily=Artifakt Element;fontStyle=0" vertex="1" parent="1">
          <mxGeometry x="600" y="560" width="120" height="40" as="geometry" />
        </mxCell>
      </root>
    </mxGraphModel>
  </diagram>
</mxfile>
